<?xml version="1.0" encoding="utf-8" standalone="no"?>
<!DOCTYPE svg PUBLIC "-//W3C//DTD SVG 1.1//EN"
  "http://www.w3.org/Graphics/SVG/1.1/DTD/svg11.dtd">
<svg xmlns:xlink="http://www.w3.org/1999/xlink" width="460.8pt" height="345.6pt" viewBox="0 0 460.8 345.6" xmlns="http://www.w3.org/2000/svg" version="1.1">
 <metadata>
  <rdf:RDF xmlns:dc="http://purl.org/dc/elements/1.1/" xmlns:cc="http://creativecommons.org/ns#" xmlns:rdf="http://www.w3.org/1999/02/22-rdf-syntax-ns#">
   <cc:Work>
    <dc:type rdf:resource="http://purl.org/dc/dcmitype/StillImage"/>
    <dc:date>2023-01-25T18:22:15.288896</dc:date>
    <dc:format>image/svg+xml</dc:format>
    <dc:creator>
     <cc:Agent>
      <dc:title>Matplotlib v3.6.3, https://matplotlib.org/</dc:title>
     </cc:Agent>
    </dc:creator>
   </cc:Work>
  </rdf:RDF>
 </metadata>
 <defs>
  <style type="text/css">*{stroke-linejoin: round; stroke-linecap: butt}</style>
 </defs>
 <g id="figure_1">
  <g id="patch_1">
   <path d="M 0 345.6 
L 460.8 345.6 
L 460.8 0 
L 0 0 
z
" style="fill: #ffffff"/>
  </g>
  <g id="axes_1">
   <g id="patch_2">
    <path d="M 51.719912 124.264227 
L 447.512727 124.264227 
L 447.512727 26.88 
L 51.719912 26.88 
z
" style="fill: #ffffff"/>
   </g>
   <g id="matplotlib.axis_1">
    <g id="xtick_1">
     <g id="line2d_1">
      <defs>
       <path id="m7af0e66f35" d="M 0 0 
L 0 3.5 
" style="stroke: #000000; stroke-width: 0.8"/>
      </defs>
      <g>
       <use xlink:href="#m7af0e66f35" x="69.710495" y="124.264227" style="stroke: #000000; stroke-width: 0.8"/>
      </g>
     </g>
     <g id="text_1">
      <!-- Monday  -->
      <g transform="translate(48.381589 138.862665) scale(0.1 -0.1)">
       <defs>
        <path id="DejaVuSans-4d" d="M 628 4666 
L 1569 4666 
L 2759 1491 
L 3956 4666 
L 4897 4666 
L 4897 0 
L 4281 0 
L 4281 4097 
L 3078 897 
L 2444 897 
L 1241 4097 
L 1241 0 
L 628 0 
L 628 4666 
z
" transform="scale(0.015625)"/>
        <path id="DejaVuSans-6f" d="M 1959 3097 
Q 1497 3097 1228 2736 
Q 959 2375 959 1747 
Q 959 1119 1226 758 
Q 1494 397 1959 397 
Q 2419 397 2687 759 
Q 2956 1122 2956 1747 
Q 2956 2369 2687 2733 
Q 2419 3097 1959 3097 
z
M 1959 3584 
Q 2709 3584 3137 3096 
Q 3566 2609 3566 1747 
Q 3566 888 3137 398 
Q 2709 -91 1959 -91 
Q 1206 -91 779 398 
Q 353 888 353 1747 
Q 353 2609 779 3096 
Q 1206 3584 1959 3584 
z
" transform="scale(0.015625)"/>
        <path id="DejaVuSans-6e" d="M 3513 2113 
L 3513 0 
L 2938 0 
L 2938 2094 
Q 2938 2591 2744 2837 
Q 2550 3084 2163 3084 
Q 1697 3084 1428 2787 
Q 1159 2491 1159 1978 
L 1159 0 
L 581 0 
L 581 3500 
L 1159 3500 
L 1159 2956 
Q 1366 3272 1645 3428 
Q 1925 3584 2291 3584 
Q 2894 3584 3203 3211 
Q 3513 2838 3513 2113 
z
" transform="scale(0.015625)"/>
        <path id="DejaVuSans-64" d="M 2906 2969 
L 2906 4863 
L 3481 4863 
L 3481 0 
L 2906 0 
L 2906 525 
Q 2725 213 2448 61 
Q 2172 -91 1784 -91 
Q 1150 -91 751 415 
Q 353 922 353 1747 
Q 353 2572 751 3078 
Q 1150 3584 1784 3584 
Q 2172 3584 2448 3432 
Q 2725 3281 2906 2969 
z
M 947 1747 
Q 947 1113 1208 752 
Q 1469 391 1925 391 
Q 2381 391 2643 752 
Q 2906 1113 2906 1747 
Q 2906 2381 2643 2742 
Q 2381 3103 1925 3103 
Q 1469 3103 1208 2742 
Q 947 2381 947 1747 
z
" transform="scale(0.015625)"/>
        <path id="DejaVuSans-61" d="M 2194 1759 
Q 1497 1759 1228 1600 
Q 959 1441 959 1056 
Q 959 750 1161 570 
Q 1363 391 1709 391 
Q 2188 391 2477 730 
Q 2766 1069 2766 1631 
L 2766 1759 
L 2194 1759 
z
M 3341 1997 
L 3341 0 
L 2766 0 
L 2766 531 
Q 2569 213 2275 61 
Q 1981 -91 1556 -91 
Q 1019 -91 701 211 
Q 384 513 384 1019 
Q 384 1609 779 1909 
Q 1175 2209 1959 2209 
L 2766 2209 
L 2766 2266 
Q 2766 2663 2505 2880 
Q 2244 3097 1772 3097 
Q 1472 3097 1187 3025 
Q 903 2953 641 2809 
L 641 3341 
Q 956 3463 1253 3523 
Q 1550 3584 1831 3584 
Q 2591 3584 2966 3190 
Q 3341 2797 3341 1997 
z
" transform="scale(0.015625)"/>
        <path id="DejaVuSans-79" d="M 2059 -325 
Q 1816 -950 1584 -1140 
Q 1353 -1331 966 -1331 
L 506 -1331 
L 506 -850 
L 844 -850 
Q 1081 -850 1212 -737 
Q 1344 -625 1503 -206 
L 1606 56 
L 191 3500 
L 800 3500 
L 1894 763 
L 2988 3500 
L 3597 3500 
L 2059 -325 
z
" transform="scale(0.015625)"/>
        <path id="DejaVuSans-20" transform="scale(0.015625)"/>
       </defs>
       <use xlink:href="#DejaVuSans-4d"/>
       <use xlink:href="#DejaVuSans-6f" x="86.279297"/>
       <use xlink:href="#DejaVuSans-6e" x="147.460938"/>
       <use xlink:href="#DejaVuSans-64" x="210.839844"/>
       <use xlink:href="#DejaVuSans-61" x="274.316406"/>
       <use xlink:href="#DejaVuSans-79" x="335.595703"/>
       <use xlink:href="#DejaVuSans-20" x="394.775391"/>
      </g>
     </g>
    </g>
    <g id="xtick_2">
     <g id="line2d_2">
      <g>
       <use xlink:href="#m7af0e66f35" x="129.679103" y="124.264227" style="stroke: #000000; stroke-width: 0.8"/>
      </g>
     </g>
     <g id="text_2">
      <!-- Tuesday -->
      <g transform="translate(109.333791 138.862665) scale(0.1 -0.1)">
       <defs>
        <path id="DejaVuSans-54" d="M -19 4666 
L 3928 4666 
L 3928 4134 
L 2272 4134 
L 2272 0 
L 1638 0 
L 1638 4134 
L -19 4134 
L -19 4666 
z
" transform="scale(0.015625)"/>
        <path id="DejaVuSans-75" d="M 544 1381 
L 544 3500 
L 1119 3500 
L 1119 1403 
Q 1119 906 1312 657 
Q 1506 409 1894 409 
Q 2359 409 2629 706 
Q 2900 1003 2900 1516 
L 2900 3500 
L 3475 3500 
L 3475 0 
L 2900 0 
L 2900 538 
Q 2691 219 2414 64 
Q 2138 -91 1772 -91 
Q 1169 -91 856 284 
Q 544 659 544 1381 
z
M 1991 3584 
L 1991 3584 
z
" transform="scale(0.015625)"/>
        <path id="DejaVuSans-65" d="M 3597 1894 
L 3597 1613 
L 953 1613 
Q 991 1019 1311 708 
Q 1631 397 2203 397 
Q 2534 397 2845 478 
Q 3156 559 3463 722 
L 3463 178 
Q 3153 47 2828 -22 
Q 2503 -91 2169 -91 
Q 1331 -91 842 396 
Q 353 884 353 1716 
Q 353 2575 817 3079 
Q 1281 3584 2069 3584 
Q 2775 3584 3186 3129 
Q 3597 2675 3597 1894 
z
M 3022 2063 
Q 3016 2534 2758 2815 
Q 2500 3097 2075 3097 
Q 1594 3097 1305 2825 
Q 1016 2553 972 2059 
L 3022 2063 
z
" transform="scale(0.015625)"/>
        <path id="DejaVuSans-73" d="M 2834 3397 
L 2834 2853 
Q 2591 2978 2328 3040 
Q 2066 3103 1784 3103 
Q 1356 3103 1142 2972 
Q 928 2841 928 2578 
Q 928 2378 1081 2264 
Q 1234 2150 1697 2047 
L 1894 2003 
Q 2506 1872 2764 1633 
Q 3022 1394 3022 966 
Q 3022 478 2636 193 
Q 2250 -91 1575 -91 
Q 1294 -91 989 -36 
Q 684 19 347 128 
L 347 722 
Q 666 556 975 473 
Q 1284 391 1588 391 
Q 1994 391 2212 530 
Q 2431 669 2431 922 
Q 2431 1156 2273 1281 
Q 2116 1406 1581 1522 
L 1381 1569 
Q 847 1681 609 1914 
Q 372 2147 372 2553 
Q 372 3047 722 3315 
Q 1072 3584 1716 3584 
Q 2034 3584 2315 3537 
Q 2597 3491 2834 3397 
z
" transform="scale(0.015625)"/>
       </defs>
       <use xlink:href="#DejaVuSans-54"/>
       <use xlink:href="#DejaVuSans-75" x="45.958984"/>
       <use xlink:href="#DejaVuSans-65" x="109.337891"/>
       <use xlink:href="#DejaVuSans-73" x="170.861328"/>
       <use xlink:href="#DejaVuSans-64" x="222.960938"/>
       <use xlink:href="#DejaVuSans-61" x="286.4375"/>
       <use xlink:href="#DejaVuSans-79" x="347.716797"/>
      </g>
     </g>
    </g>
    <g id="xtick_3">
     <g id="line2d_3">
      <g>
       <use xlink:href="#m7af0e66f35" x="189.647711" y="124.264227" style="stroke: #000000; stroke-width: 0.8"/>
      </g>
     </g>
     <g id="text_3">
      <!-- Wednesday -->
      <g transform="translate(160.699274 138.862665) scale(0.1 -0.1)">
       <defs>
        <path id="DejaVuSans-57" d="M 213 4666 
L 850 4666 
L 1831 722 
L 2809 4666 
L 3519 4666 
L 4500 722 
L 5478 4666 
L 6119 4666 
L 4947 0 
L 4153 0 
L 3169 4050 
L 2175 0 
L 1381 0 
L 213 4666 
z
" transform="scale(0.015625)"/>
       </defs>
       <use xlink:href="#DejaVuSans-57"/>
       <use xlink:href="#DejaVuSans-65" x="93.001953"/>
       <use xlink:href="#DejaVuSans-64" x="154.525391"/>
       <use xlink:href="#DejaVuSans-6e" x="218.001953"/>
       <use xlink:href="#DejaVuSans-65" x="281.380859"/>
       <use xlink:href="#DejaVuSans-73" x="342.904297"/>
       <use xlink:href="#DejaVuSans-64" x="395.003906"/>
       <use xlink:href="#DejaVuSans-61" x="458.480469"/>
       <use xlink:href="#DejaVuSans-79" x="519.759766"/>
      </g>
     </g>
    </g>
    <g id="xtick_4">
     <g id="line2d_4">
      <g>
       <use xlink:href="#m7af0e66f35" x="249.61632" y="124.264227" style="stroke: #000000; stroke-width: 0.8"/>
      </g>
     </g>
     <g id="text_4">
      <!-- Thursday -->
      <g transform="translate(226.367101 138.862665) scale(0.1 -0.1)">
       <defs>
        <path id="DejaVuSans-68" d="M 3513 2113 
L 3513 0 
L 2938 0 
L 2938 2094 
Q 2938 2591 2744 2837 
Q 2550 3084 2163 3084 
Q 1697 3084 1428 2787 
Q 1159 2491 1159 1978 
L 1159 0 
L 581 0 
L 581 4863 
L 1159 4863 
L 1159 2956 
Q 1366 3272 1645 3428 
Q 1925 3584 2291 3584 
Q 2894 3584 3203 3211 
Q 3513 2838 3513 2113 
z
" transform="scale(0.015625)"/>
        <path id="DejaVuSans-72" d="M 2631 2963 
Q 2534 3019 2420 3045 
Q 2306 3072 2169 3072 
Q 1681 3072 1420 2755 
Q 1159 2438 1159 1844 
L 1159 0 
L 581 0 
L 581 3500 
L 1159 3500 
L 1159 2956 
Q 1341 3275 1631 3429 
Q 1922 3584 2338 3584 
Q 2397 3584 2469 3576 
Q 2541 3569 2628 3553 
L 2631 2963 
z
" transform="scale(0.015625)"/>
       </defs>
       <use xlink:href="#DejaVuSans-54"/>
       <use xlink:href="#DejaVuSans-68" x="61.083984"/>
       <use xlink:href="#DejaVuSans-75" x="124.462891"/>
       <use xlink:href="#DejaVuSans-72" x="187.841797"/>
       <use xlink:href="#DejaVuSans-73" x="228.955078"/>
       <use xlink:href="#DejaVuSans-64" x="281.054688"/>
       <use xlink:href="#DejaVuSans-61" x="344.53125"/>
       <use xlink:href="#DejaVuSans-79" x="405.810547"/>
      </g>
     </g>
    </g>
    <g id="xtick_5">
     <g id="line2d_5">
      <g>
       <use xlink:href="#m7af0e66f35" x="309.584928" y="124.264227" style="stroke: #000000; stroke-width: 0.8"/>
      </g>
     </g>
     <g id="text_5">
      <!-- Friday -->
      <g transform="translate(294.429459 138.862665) scale(0.1 -0.1)">
       <defs>
        <path id="DejaVuSans-46" d="M 628 4666 
L 3309 4666 
L 3309 4134 
L 1259 4134 
L 1259 2759 
L 3109 2759 
L 3109 2228 
L 1259 2228 
L 1259 0 
L 628 0 
L 628 4666 
z
" transform="scale(0.015625)"/>
        <path id="DejaVuSans-69" d="M 603 3500 
L 1178 3500 
L 1178 0 
L 603 0 
L 603 3500 
z
M 603 4863 
L 1178 4863 
L 1178 4134 
L 603 4134 
L 603 4863 
z
" transform="scale(0.015625)"/>
       </defs>
       <use xlink:href="#DejaVuSans-46"/>
       <use xlink:href="#DejaVuSans-72" x="50.269531"/>
       <use xlink:href="#DejaVuSans-69" x="91.382812"/>
       <use xlink:href="#DejaVuSans-64" x="119.166016"/>
       <use xlink:href="#DejaVuSans-61" x="182.642578"/>
       <use xlink:href="#DejaVuSans-79" x="243.921875"/>
      </g>
     </g>
    </g>
    <g id="xtick_6">
     <g id="line2d_6">
      <g>
       <use xlink:href="#m7af0e66f35" x="369.553536" y="124.264227" style="stroke: #000000; stroke-width: 0.8"/>
      </g>
     </g>
     <g id="text_6">
      <!-- Saturday -->
      <g transform="translate(347.020724 138.862665) scale(0.1 -0.1)">
       <defs>
        <path id="DejaVuSans-53" d="M 3425 4513 
L 3425 3897 
Q 3066 4069 2747 4153 
Q 2428 4238 2131 4238 
Q 1616 4238 1336 4038 
Q 1056 3838 1056 3469 
Q 1056 3159 1242 3001 
Q 1428 2844 1947 2747 
L 2328 2669 
Q 3034 2534 3370 2195 
Q 3706 1856 3706 1288 
Q 3706 609 3251 259 
Q 2797 -91 1919 -91 
Q 1588 -91 1214 -16 
Q 841 59 441 206 
L 441 856 
Q 825 641 1194 531 
Q 1563 422 1919 422 
Q 2459 422 2753 634 
Q 3047 847 3047 1241 
Q 3047 1584 2836 1778 
Q 2625 1972 2144 2069 
L 1759 2144 
Q 1053 2284 737 2584 
Q 422 2884 422 3419 
Q 422 4038 858 4394 
Q 1294 4750 2059 4750 
Q 2388 4750 2728 4690 
Q 3069 4631 3425 4513 
z
" transform="scale(0.015625)"/>
        <path id="DejaVuSans-74" d="M 1172 4494 
L 1172 3500 
L 2356 3500 
L 2356 3053 
L 1172 3053 
L 1172 1153 
Q 1172 725 1289 603 
Q 1406 481 1766 481 
L 2356 481 
L 2356 0 
L 1766 0 
Q 1100 0 847 248 
Q 594 497 594 1153 
L 594 3053 
L 172 3053 
L 172 3500 
L 594 3500 
L 594 4494 
L 1172 4494 
z
" transform="scale(0.015625)"/>
       </defs>
       <use xlink:href="#DejaVuSans-53"/>
       <use xlink:href="#DejaVuSans-61" x="63.476562"/>
       <use xlink:href="#DejaVuSans-74" x="124.755859"/>
       <use xlink:href="#DejaVuSans-75" x="163.964844"/>
       <use xlink:href="#DejaVuSans-72" x="227.34375"/>
       <use xlink:href="#DejaVuSans-64" x="266.707031"/>
       <use xlink:href="#DejaVuSans-61" x="330.183594"/>
       <use xlink:href="#DejaVuSans-79" x="391.462891"/>
      </g>
     </g>
    </g>
    <g id="xtick_7">
     <g id="line2d_7">
      <g>
       <use xlink:href="#m7af0e66f35" x="429.522145" y="124.264227" style="stroke: #000000; stroke-width: 0.8"/>
      </g>
     </g>
     <g id="text_7">
      <!-- Sunday -->
      <g transform="translate(410.81277 138.862665) scale(0.1 -0.1)">
       <use xlink:href="#DejaVuSans-53"/>
       <use xlink:href="#DejaVuSans-75" x="63.476562"/>
       <use xlink:href="#DejaVuSans-6e" x="126.855469"/>
       <use xlink:href="#DejaVuSans-64" x="190.234375"/>
       <use xlink:href="#DejaVuSans-61" x="253.710938"/>
       <use xlink:href="#DejaVuSans-79" x="314.990234"/>
      </g>
     </g>
    </g>
    <g id="text_8">
     <!-- Weekday -->
     <g transform="translate(226.720226 152.54079) scale(0.1 -0.1)">
      <defs>
       <path id="DejaVuSans-6b" d="M 581 4863 
L 1159 4863 
L 1159 1991 
L 2875 3500 
L 3609 3500 
L 1753 1863 
L 3688 0 
L 2938 0 
L 1159 1709 
L 1159 0 
L 581 0 
L 581 4863 
z
" transform="scale(0.015625)"/>
      </defs>
      <use xlink:href="#DejaVuSans-57"/>
      <use xlink:href="#DejaVuSans-65" x="93.001953"/>
      <use xlink:href="#DejaVuSans-65" x="154.525391"/>
      <use xlink:href="#DejaVuSans-6b" x="216.048828"/>
      <use xlink:href="#DejaVuSans-64" x="273.958984"/>
      <use xlink:href="#DejaVuSans-61" x="337.435547"/>
      <use xlink:href="#DejaVuSans-79" x="398.714844"/>
     </g>
    </g>
   </g>
   <g id="matplotlib.axis_2">
    <g id="ytick_1">
     <g id="line2d_8">
      <defs>
       <path id="m336d032efe" d="M 0 0 
L -3.5 0 
" style="stroke: #000000; stroke-width: 0.8"/>
      </defs>
      <g>
       <use xlink:href="#m336d032efe" x="51.719912" y="123.426263" style="stroke: #000000; stroke-width: 0.8"/>
      </g>
     </g>
     <g id="text_9">
      <!-- 5 -->
      <g transform="translate(38.357412 127.225482) scale(0.1 -0.1)">
       <defs>
        <path id="DejaVuSans-35" d="M 691 4666 
L 3169 4666 
L 3169 4134 
L 1269 4134 
L 1269 2991 
Q 1406 3038 1543 3061 
Q 1681 3084 1819 3084 
Q 2600 3084 3056 2656 
Q 3513 2228 3513 1497 
Q 3513 744 3044 326 
Q 2575 -91 1722 -91 
Q 1428 -91 1123 -41 
Q 819 9 494 109 
L 494 744 
Q 775 591 1075 516 
Q 1375 441 1709 441 
Q 2250 441 2565 725 
Q 2881 1009 2881 1497 
Q 2881 1984 2565 2268 
Q 2250 2553 1709 2553 
Q 1456 2553 1204 2497 
Q 953 2441 691 2322 
L 691 4666 
z
" transform="scale(0.015625)"/>
       </defs>
       <use xlink:href="#DejaVuSans-35"/>
      </g>
     </g>
    </g>
    <g id="ytick_2">
     <g id="line2d_9">
      <g>
       <use xlink:href="#m336d032efe" x="51.719912" y="95.975669" style="stroke: #000000; stroke-width: 0.8"/>
      </g>
     </g>
     <g id="text_10">
      <!-- 10 -->
      <g transform="translate(31.994912 99.774888) scale(0.1 -0.1)">
       <defs>
        <path id="DejaVuSans-31" d="M 794 531 
L 1825 531 
L 1825 4091 
L 703 3866 
L 703 4441 
L 1819 4666 
L 2450 4666 
L 2450 531 
L 3481 531 
L 3481 0 
L 794 0 
L 794 531 
z
" transform="scale(0.015625)"/>
        <path id="DejaVuSans-30" d="M 2034 4250 
Q 1547 4250 1301 3770 
Q 1056 3291 1056 2328 
Q 1056 1369 1301 889 
Q 1547 409 2034 409 
Q 2525 409 2770 889 
Q 3016 1369 3016 2328 
Q 3016 3291 2770 3770 
Q 2525 4250 2034 4250 
z
M 2034 4750 
Q 2819 4750 3233 4129 
Q 3647 3509 3647 2328 
Q 3647 1150 3233 529 
Q 2819 -91 2034 -91 
Q 1250 -91 836 529 
Q 422 1150 422 2328 
Q 422 3509 836 4129 
Q 1250 4750 2034 4750 
z
" transform="scale(0.015625)"/>
       </defs>
       <use xlink:href="#DejaVuSans-31"/>
       <use xlink:href="#DejaVuSans-30" x="63.623047"/>
      </g>
     </g>
    </g>
    <g id="ytick_3">
     <g id="line2d_10">
      <g>
       <use xlink:href="#m336d032efe" x="51.719912" y="68.525075" style="stroke: #000000; stroke-width: 0.8"/>
      </g>
     </g>
     <g id="text_11">
      <!-- 15 -->
      <g transform="translate(31.994912 72.324294) scale(0.1 -0.1)">
       <use xlink:href="#DejaVuSans-31"/>
       <use xlink:href="#DejaVuSans-35" x="63.623047"/>
      </g>
     </g>
    </g>
    <g id="ytick_4">
     <g id="line2d_11">
      <g>
       <use xlink:href="#m336d032efe" x="51.719912" y="41.074481" style="stroke: #000000; stroke-width: 0.8"/>
      </g>
     </g>
     <g id="text_12">
      <!-- 20 -->
      <g transform="translate(31.994912 44.8737) scale(0.1 -0.1)">
       <defs>
        <path id="DejaVuSans-32" d="M 1228 531 
L 3431 531 
L 3431 0 
L 469 0 
L 469 531 
Q 828 903 1448 1529 
Q 2069 2156 2228 2338 
Q 2531 2678 2651 2914 
Q 2772 3150 2772 3378 
Q 2772 3750 2511 3984 
Q 2250 4219 1831 4219 
Q 1534 4219 1204 4116 
Q 875 4013 500 3803 
L 500 4441 
Q 881 4594 1212 4672 
Q 1544 4750 1819 4750 
Q 2544 4750 2975 4387 
Q 3406 4025 3406 3419 
Q 3406 3131 3298 2873 
Q 3191 2616 2906 2266 
Q 2828 2175 2409 1742 
Q 1991 1309 1228 531 
z
" transform="scale(0.015625)"/>
       </defs>
       <use xlink:href="#DejaVuSans-32"/>
       <use xlink:href="#DejaVuSans-30" x="63.623047"/>
      </g>
     </g>
    </g>
    <g id="text_13">
     <!-- average connections -->
     <g transform="translate(25.915225 127.785395) rotate(-90) scale(0.1 -0.1)">
      <defs>
       <path id="DejaVuSans-76" d="M 191 3500 
L 800 3500 
L 1894 563 
L 2988 3500 
L 3597 3500 
L 2284 0 
L 1503 0 
L 191 3500 
z
" transform="scale(0.015625)"/>
       <path id="DejaVuSans-67" d="M 2906 1791 
Q 2906 2416 2648 2759 
Q 2391 3103 1925 3103 
Q 1463 3103 1205 2759 
Q 947 2416 947 1791 
Q 947 1169 1205 825 
Q 1463 481 1925 481 
Q 2391 481 2648 825 
Q 2906 1169 2906 1791 
z
M 3481 434 
Q 3481 -459 3084 -895 
Q 2688 -1331 1869 -1331 
Q 1566 -1331 1297 -1286 
Q 1028 -1241 775 -1147 
L 775 -588 
Q 1028 -725 1275 -790 
Q 1522 -856 1778 -856 
Q 2344 -856 2625 -561 
Q 2906 -266 2906 331 
L 2906 616 
Q 2728 306 2450 153 
Q 2172 0 1784 0 
Q 1141 0 747 490 
Q 353 981 353 1791 
Q 353 2603 747 3093 
Q 1141 3584 1784 3584 
Q 2172 3584 2450 3431 
Q 2728 3278 2906 2969 
L 2906 3500 
L 3481 3500 
L 3481 434 
z
" transform="scale(0.015625)"/>
       <path id="DejaVuSans-63" d="M 3122 3366 
L 3122 2828 
Q 2878 2963 2633 3030 
Q 2388 3097 2138 3097 
Q 1578 3097 1268 2742 
Q 959 2388 959 1747 
Q 959 1106 1268 751 
Q 1578 397 2138 397 
Q 2388 397 2633 464 
Q 2878 531 3122 666 
L 3122 134 
Q 2881 22 2623 -34 
Q 2366 -91 2075 -91 
Q 1284 -91 818 406 
Q 353 903 353 1747 
Q 353 2603 823 3093 
Q 1294 3584 2113 3584 
Q 2378 3584 2631 3529 
Q 2884 3475 3122 3366 
z
" transform="scale(0.015625)"/>
      </defs>
      <use xlink:href="#DejaVuSans-61"/>
      <use xlink:href="#DejaVuSans-76" x="61.279297"/>
      <use xlink:href="#DejaVuSans-65" x="120.458984"/>
      <use xlink:href="#DejaVuSans-72" x="181.982422"/>
      <use xlink:href="#DejaVuSans-61" x="223.095703"/>
      <use xlink:href="#DejaVuSans-67" x="284.375"/>
      <use xlink:href="#DejaVuSans-65" x="347.851562"/>
      <use xlink:href="#DejaVuSans-20" x="409.375"/>
      <use xlink:href="#DejaVuSans-63" x="441.162109"/>
      <use xlink:href="#DejaVuSans-6f" x="496.142578"/>
      <use xlink:href="#DejaVuSans-6e" x="557.324219"/>
      <use xlink:href="#DejaVuSans-6e" x="620.703125"/>
      <use xlink:href="#DejaVuSans-65" x="684.082031"/>
      <use xlink:href="#DejaVuSans-63" x="745.605469"/>
      <use xlink:href="#DejaVuSans-74" x="800.585938"/>
      <use xlink:href="#DejaVuSans-69" x="839.794922"/>
      <use xlink:href="#DejaVuSans-6f" x="867.578125"/>
      <use xlink:href="#DejaVuSans-6e" x="928.759766"/>
      <use xlink:href="#DejaVuSans-73" x="992.138672"/>
     </g>
    </g>
   </g>
   <g id="LineCollection_1">
    <path d="M 69.710495 113.402603 
L 69.710495 62.993399 
" clip-path="url(#pe52643500e)" style="fill: none; stroke: #1f77b4; stroke-width: 1.5"/>
    <path d="M 129.679103 119.837672 
L 129.679103 63.445058 
" clip-path="url(#pe52643500e)" style="fill: none; stroke: #1f77b4; stroke-width: 1.5"/>
    <path clip-path="url(#pe52643500e)" style="fill: none; stroke: #1f77b4; stroke-width: 1.5"/>
    <path clip-path="url(#pe52643500e)" style="fill: none; stroke: #1f77b4; stroke-width: 1.5"/>
    <path d="M 309.584928 96.135886 
L 309.584928 31.306556 
" clip-path="url(#pe52643500e)" style="fill: none; stroke: #1f77b4; stroke-width: 1.5"/>
    <path d="M 369.553536 99.538544 
L 369.553536 39.341645 
" clip-path="url(#pe52643500e)" style="fill: none; stroke: #1f77b4; stroke-width: 1.5"/>
    <path d="M 429.522145 111.278396 
L 429.522145 31.977975 
" clip-path="url(#pe52643500e)" style="fill: none; stroke: #1f77b4; stroke-width: 1.5"/>
   </g>
   <g id="line2d_12">
    <path d="M 69.710495 88.198001 
L 129.679103 91.641365 
M 309.584928 63.721221 
L 369.553536 69.440095 
L 429.522145 71.628186 
" clip-path="url(#pe52643500e)" style="fill: none; stroke: #1f77b4; stroke-width: 1.5; stroke-linecap: square"/>
   </g>
   <g id="patch_3">
    <path d="M 51.719912 124.264227 
L 51.719912 26.88 
" style="fill: none; stroke: #000000; stroke-width: 0.8; stroke-linejoin: miter; stroke-linecap: square"/>
   </g>
   <g id="patch_4">
    <path d="M 447.512727 124.264227 
L 447.512727 26.88 
" style="fill: none; stroke: #000000; stroke-width: 0.8; stroke-linejoin: miter; stroke-linecap: square"/>
   </g>
   <g id="patch_5">
    <path d="M 51.719912 124.264227 
L 447.512727 124.264227 
" style="fill: none; stroke: #000000; stroke-width: 0.8; stroke-linejoin: miter; stroke-linecap: square"/>
   </g>
   <g id="patch_6">
    <path d="M 51.719912 26.88 
L 447.512727 26.88 
" style="fill: none; stroke: #000000; stroke-width: 0.8; stroke-linejoin: miter; stroke-linecap: square"/>
   </g>
   <g id="text_14">
    <!-- Average connections for each Weekday -->
    <g transform="translate(130.969132 20.88) scale(0.12 -0.12)">
     <defs>
      <path id="DejaVuSans-41" d="M 2188 4044 
L 1331 1722 
L 3047 1722 
L 2188 4044 
z
M 1831 4666 
L 2547 4666 
L 4325 0 
L 3669 0 
L 3244 1197 
L 1141 1197 
L 716 0 
L 50 0 
L 1831 4666 
z
" transform="scale(0.015625)"/>
      <path id="DejaVuSans-66" d="M 2375 4863 
L 2375 4384 
L 1825 4384 
Q 1516 4384 1395 4259 
Q 1275 4134 1275 3809 
L 1275 3500 
L 2222 3500 
L 2222 3053 
L 1275 3053 
L 1275 0 
L 697 0 
L 697 3053 
L 147 3053 
L 147 3500 
L 697 3500 
L 697 3744 
Q 697 4328 969 4595 
Q 1241 4863 1831 4863 
L 2375 4863 
z
" transform="scale(0.015625)"/>
     </defs>
     <use xlink:href="#DejaVuSans-41"/>
     <use xlink:href="#DejaVuSans-76" x="62.533203"/>
     <use xlink:href="#DejaVuSans-65" x="121.712891"/>
     <use xlink:href="#DejaVuSans-72" x="183.236328"/>
     <use xlink:href="#DejaVuSans-61" x="224.349609"/>
     <use xlink:href="#DejaVuSans-67" x="285.628906"/>
     <use xlink:href="#DejaVuSans-65" x="349.105469"/>
     <use xlink:href="#DejaVuSans-20" x="410.628906"/>
     <use xlink:href="#DejaVuSans-63" x="442.416016"/>
     <use xlink:href="#DejaVuSans-6f" x="497.396484"/>
     <use xlink:href="#DejaVuSans-6e" x="558.578125"/>
     <use xlink:href="#DejaVuSans-6e" x="621.957031"/>
     <use xlink:href="#DejaVuSans-65" x="685.335938"/>
     <use xlink:href="#DejaVuSans-63" x="746.859375"/>
     <use xlink:href="#DejaVuSans-74" x="801.839844"/>
     <use xlink:href="#DejaVuSans-69" x="841.048828"/>
     <use xlink:href="#DejaVuSans-6f" x="868.832031"/>
     <use xlink:href="#DejaVuSans-6e" x="930.013672"/>
     <use xlink:href="#DejaVuSans-73" x="993.392578"/>
     <use xlink:href="#DejaVuSans-20" x="1045.492188"/>
     <use xlink:href="#DejaVuSans-66" x="1077.279297"/>
     <use xlink:href="#DejaVuSans-6f" x="1112.484375"/>
     <use xlink:href="#DejaVuSans-72" x="1173.666016"/>
     <use xlink:href="#DejaVuSans-20" x="1214.779297"/>
     <use xlink:href="#DejaVuSans-65" x="1246.566406"/>
     <use xlink:href="#DejaVuSans-61" x="1308.089844"/>
     <use xlink:href="#DejaVuSans-63" x="1369.369141"/>
     <use xlink:href="#DejaVuSans-68" x="1424.349609"/>
     <use xlink:href="#DejaVuSans-20" x="1487.728516"/>
     <use xlink:href="#DejaVuSans-57" x="1519.515625"/>
     <use xlink:href="#DejaVuSans-65" x="1612.517578"/>
     <use xlink:href="#DejaVuSans-65" x="1674.041016"/>
     <use xlink:href="#DejaVuSans-6b" x="1735.564453"/>
     <use xlink:href="#DejaVuSans-64" x="1793.474609"/>
     <use xlink:href="#DejaVuSans-61" x="1856.951172"/>
     <use xlink:href="#DejaVuSans-79" x="1918.230469"/>
    </g>
   </g>
  </g>
  <g id="axes_2">
   <g id="patch_7">
    <path d="M 51.719912 279.688455 
L 447.512727 279.688455 
L 447.512727 182.304227 
L 51.719912 182.304227 
z
" style="fill: #ffffff"/>
   </g>
   <g id="matplotlib.axis_3">
    <g id="xtick_8">
     <g id="line2d_13">
      <g>
       <use xlink:href="#m7af0e66f35" x="69.710495" y="279.688455" style="stroke: #000000; stroke-width: 0.8"/>
      </g>
     </g>
     <g id="text_15">
      <!-- Monday  -->
      <g transform="translate(56.579853 322.22499) rotate(-45) scale(0.1 -0.1)">
       <use xlink:href="#DejaVuSans-4d"/>
       <use xlink:href="#DejaVuSans-6f" x="86.279297"/>
       <use xlink:href="#DejaVuSans-6e" x="147.460938"/>
       <use xlink:href="#DejaVuSans-64" x="210.839844"/>
       <use xlink:href="#DejaVuSans-61" x="274.316406"/>
       <use xlink:href="#DejaVuSans-79" x="335.595703"/>
       <use xlink:href="#DejaVuSans-20" x="394.775391"/>
      </g>
     </g>
    </g>
    <g id="xtick_9">
     <g id="line2d_14">
      <g>
       <use xlink:href="#m7af0e66f35" x="129.679103" y="279.688455" style="stroke: #000000; stroke-width: 0.8"/>
      </g>
     </g>
     <g id="text_16">
      <!-- Tuesday -->
      <g transform="translate(117.243967 320.833978) rotate(-45) scale(0.1 -0.1)">
       <use xlink:href="#DejaVuSans-54"/>
       <use xlink:href="#DejaVuSans-75" x="45.958984"/>
       <use xlink:href="#DejaVuSans-65" x="109.337891"/>
       <use xlink:href="#DejaVuSans-73" x="170.861328"/>
       <use xlink:href="#DejaVuSans-64" x="222.960938"/>
       <use xlink:href="#DejaVuSans-61" x="286.4375"/>
       <use xlink:href="#DejaVuSans-79" x="347.716797"/>
      </g>
     </g>
    </g>
    <g id="xtick_10">
     <g id="line2d_15">
      <g>
       <use xlink:href="#m7af0e66f35" x="189.647711" y="279.688455" style="stroke: #000000; stroke-width: 0.8"/>
      </g>
     </g>
     <g id="text_17">
      <!-- Wednesday -->
      <g transform="translate(171.129248 333.000634) rotate(-45) scale(0.1 -0.1)">
       <use xlink:href="#DejaVuSans-57"/>
       <use xlink:href="#DejaVuSans-65" x="93.001953"/>
       <use xlink:href="#DejaVuSans-64" x="154.525391"/>
       <use xlink:href="#DejaVuSans-6e" x="218.001953"/>
       <use xlink:href="#DejaVuSans-65" x="281.380859"/>
       <use xlink:href="#DejaVuSans-73" x="342.904297"/>
       <use xlink:href="#DejaVuSans-64" x="395.003906"/>
       <use xlink:href="#DejaVuSans-61" x="458.480469"/>
       <use xlink:href="#DejaVuSans-79" x="519.759766"/>
      </g>
     </g>
    </g>
    <g id="xtick_11">
     <g id="line2d_16">
      <g>
       <use xlink:href="#m7af0e66f35" x="249.61632" y="279.688455" style="stroke: #000000; stroke-width: 0.8"/>
      </g>
     </g>
     <g id="text_18">
      <!-- Thursday -->
      <g transform="translate(235.127812 324.940722) rotate(-45) scale(0.1 -0.1)">
       <use xlink:href="#DejaVuSans-54"/>
       <use xlink:href="#DejaVuSans-68" x="61.083984"/>
       <use xlink:href="#DejaVuSans-75" x="124.462891"/>
       <use xlink:href="#DejaVuSans-72" x="187.841797"/>
       <use xlink:href="#DejaVuSans-73" x="228.955078"/>
       <use xlink:href="#DejaVuSans-64" x="281.054688"/>
       <use xlink:href="#DejaVuSans-61" x="344.53125"/>
       <use xlink:href="#DejaVuSans-79" x="405.810547"/>
      </g>
     </g>
    </g>
    <g id="xtick_12">
     <g id="line2d_17">
      <g>
       <use xlink:href="#m7af0e66f35" x="309.584928" y="279.688455" style="stroke: #000000; stroke-width: 0.8"/>
      </g>
     </g>
     <g id="text_19">
      <!-- Friday -->
      <g transform="translate(300.819566 313.494431) rotate(-45) scale(0.1 -0.1)">
       <use xlink:href="#DejaVuSans-46"/>
       <use xlink:href="#DejaVuSans-72" x="50.269531"/>
       <use xlink:href="#DejaVuSans-69" x="91.382812"/>
       <use xlink:href="#DejaVuSans-64" x="119.166016"/>
       <use xlink:href="#DejaVuSans-61" x="182.642578"/>
       <use xlink:href="#DejaVuSans-79" x="243.921875"/>
      </g>
     </g>
    </g>
    <g id="xtick_13">
     <g id="line2d_18">
      <g>
       <use xlink:href="#m7af0e66f35" x="369.553536" y="279.688455" style="stroke: #000000; stroke-width: 0.8"/>
      </g>
     </g>
     <g id="text_20">
      <!-- Saturday -->
      <g transform="translate(355.571605 323.92757) rotate(-45) scale(0.1 -0.1)">
       <use xlink:href="#DejaVuSans-53"/>
       <use xlink:href="#DejaVuSans-61" x="63.476562"/>
       <use xlink:href="#DejaVuSans-74" x="124.755859"/>
       <use xlink:href="#DejaVuSans-75" x="163.964844"/>
       <use xlink:href="#DejaVuSans-72" x="227.34375"/>
       <use xlink:href="#DejaVuSans-64" x="266.707031"/>
       <use xlink:href="#DejaVuSans-61" x="330.183594"/>
       <use xlink:href="#DejaVuSans-79" x="391.462891"/>
      </g>
     </g>
    </g>
    <g id="xtick_14">
     <g id="line2d_19">
      <g>
       <use xlink:href="#m7af0e66f35" x="429.522145" y="279.688455" style="stroke: #000000; stroke-width: 0.8"/>
      </g>
     </g>
     <g id="text_21">
      <!-- Sunday -->
      <g transform="translate(418.243792 318.520413) rotate(-45) scale(0.1 -0.1)">
       <use xlink:href="#DejaVuSans-53"/>
       <use xlink:href="#DejaVuSans-75" x="63.476562"/>
       <use xlink:href="#DejaVuSans-6e" x="126.855469"/>
       <use xlink:href="#DejaVuSans-64" x="190.234375"/>
       <use xlink:href="#DejaVuSans-61" x="253.710938"/>
       <use xlink:href="#DejaVuSans-79" x="314.990234"/>
      </g>
     </g>
    </g>
   </g>
   <g id="matplotlib.axis_4">
    <g id="ytick_5">
     <g id="line2d_20">
      <g>
       <use xlink:href="#m336d032efe" x="51.719912" y="269.351186" style="stroke: #000000; stroke-width: 0.8"/>
      </g>
     </g>
     <g id="text_22">
      <!-- 0 -->
      <g transform="translate(38.750384 275.423841) rotate(-45) scale(0.1 -0.1)">
       <use xlink:href="#DejaVuSans-30"/>
      </g>
     </g>
    </g>
    <g id="ytick_6">
     <g id="line2d_21">
      <g>
       <use xlink:href="#m336d032efe" x="51.719912" y="240.961701" style="stroke: #000000; stroke-width: 0.8"/>
      </g>
     </g>
     <g id="text_23">
      <!-- 50000 -->
      <g transform="translate(20.754517 265.030223) rotate(-45) scale(0.1 -0.1)">
       <use xlink:href="#DejaVuSans-35"/>
       <use xlink:href="#DejaVuSans-30" x="63.623047"/>
       <use xlink:href="#DejaVuSans-30" x="127.246094"/>
       <use xlink:href="#DejaVuSans-30" x="190.869141"/>
       <use xlink:href="#DejaVuSans-30" x="254.492188"/>
      </g>
     </g>
    </g>
    <g id="ytick_7">
     <g id="line2d_22">
      <g>
       <use xlink:href="#m336d032efe" x="51.719912" y="212.572215" style="stroke: #000000; stroke-width: 0.8"/>
      </g>
     </g>
     <g id="text_24">
      <!-- 100000 -->
      <g transform="translate(16.25555 241.139705) rotate(-45) scale(0.1 -0.1)">
       <use xlink:href="#DejaVuSans-31"/>
       <use xlink:href="#DejaVuSans-30" x="63.623047"/>
       <use xlink:href="#DejaVuSans-30" x="127.246094"/>
       <use xlink:href="#DejaVuSans-30" x="190.869141"/>
       <use xlink:href="#DejaVuSans-30" x="254.492188"/>
       <use xlink:href="#DejaVuSans-30" x="318.115234"/>
      </g>
     </g>
    </g>
    <g id="ytick_8">
     <g id="line2d_23">
      <g>
       <use xlink:href="#m336d032efe" x="51.719912" y="184.18273" style="stroke: #000000; stroke-width: 0.8"/>
      </g>
     </g>
     <g id="text_25">
      <!-- 150000 -->
      <g transform="translate(16.25555 212.750219) rotate(-45) scale(0.1 -0.1)">
       <use xlink:href="#DejaVuSans-31"/>
       <use xlink:href="#DejaVuSans-35" x="63.623047"/>
       <use xlink:href="#DejaVuSans-30" x="127.246094"/>
       <use xlink:href="#DejaVuSans-30" x="190.869141"/>
       <use xlink:href="#DejaVuSans-30" x="254.492188"/>
       <use xlink:href="#DejaVuSans-30" x="318.115234"/>
      </g>
     </g>
    </g>
   </g>
   <g id="LineCollection_2">
    <path d="M 69.710495 268.854001 
L 69.710495 209.044576 
" clip-path="url(#pec6bad70ff)" style="fill: none; stroke: #1f77b4; stroke-width: 1.5"/>
    <path d="M 129.679103 265.978266 
L 129.679103 216.449094 
" clip-path="url(#pec6bad70ff)" style="fill: none; stroke: #1f77b4; stroke-width: 1.5"/>
    <path clip-path="url(#pec6bad70ff)" style="fill: none; stroke: #1f77b4; stroke-width: 1.5"/>
    <path clip-path="url(#pec6bad70ff)" style="fill: none; stroke: #1f77b4; stroke-width: 1.5"/>
    <path d="M 309.584928 257.558523 
L 309.584928 186.730783 
" clip-path="url(#pec6bad70ff)" style="fill: none; stroke: #1f77b4; stroke-width: 1.5"/>
    <path d="M 369.553536 257.730505 
L 369.553536 204.312308 
" clip-path="url(#pec6bad70ff)" style="fill: none; stroke: #1f77b4; stroke-width: 1.5"/>
    <path d="M 429.522145 263.716415 
L 429.522145 202.463857 
" clip-path="url(#pec6bad70ff)" style="fill: none; stroke: #1f77b4; stroke-width: 1.5"/>
   </g>
   <g id="LineCollection_3">
    <path d="M 69.710495 270.292513 
L 69.710495 258.335377 
" clip-path="url(#pec6bad70ff)" style="fill: none; stroke: #ff7f0e; stroke-width: 1.5"/>
    <path d="M 129.679103 269.307016 
L 129.679103 262.968336 
" clip-path="url(#pec6bad70ff)" style="fill: none; stroke: #ff7f0e; stroke-width: 1.5"/>
    <path clip-path="url(#pec6bad70ff)" style="fill: none; stroke: #ff7f0e; stroke-width: 1.5"/>
    <path clip-path="url(#pec6bad70ff)" style="fill: none; stroke: #ff7f0e; stroke-width: 1.5"/>
    <path d="M 309.584928 268.263244 
L 309.584928 256.635451 
" clip-path="url(#pec6bad70ff)" style="fill: none; stroke: #ff7f0e; stroke-width: 1.5"/>
    <path d="M 369.553536 271.271827 
L 369.553536 250.044398 
" clip-path="url(#pec6bad70ff)" style="fill: none; stroke: #ff7f0e; stroke-width: 1.5"/>
    <path d="M 429.522145 275.261899 
L 429.522145 247.990274 
" clip-path="url(#pec6bad70ff)" style="fill: none; stroke: #ff7f0e; stroke-width: 1.5"/>
   </g>
   <g id="line2d_24">
    <path d="M 69.710495 238.949288 
L 129.679103 241.21368 
M 309.584928 222.144653 
L 369.553536 231.021406 
L 429.522145 233.090136 
" clip-path="url(#pec6bad70ff)" style="fill: none; stroke: #1f77b4; stroke-width: 1.5; stroke-linecap: square"/>
   </g>
   <g id="line2d_25">
    <path d="M 69.710495 264.313945 
L 129.679103 266.137676 
M 309.584928 262.449347 
L 369.553536 260.658113 
L 429.522145 261.626086 
" clip-path="url(#pec6bad70ff)" style="fill: none; stroke: #ff7f0e; stroke-width: 1.5; stroke-linecap: square"/>
   </g>
   <g id="patch_8">
    <path d="M 51.719912 279.688455 
L 51.719912 182.304227 
" style="fill: none; stroke: #000000; stroke-width: 0.8; stroke-linejoin: miter; stroke-linecap: square"/>
   </g>
   <g id="patch_9">
    <path d="M 447.512727 279.688455 
L 447.512727 182.304227 
" style="fill: none; stroke: #000000; stroke-width: 0.8; stroke-linejoin: miter; stroke-linecap: square"/>
   </g>
   <g id="patch_10">
    <path d="M 51.719912 279.688455 
L 447.512727 279.688455 
" style="fill: none; stroke: #000000; stroke-width: 0.8; stroke-linejoin: miter; stroke-linecap: square"/>
   </g>
   <g id="patch_11">
    <path d="M 51.719912 182.304227 
L 447.512727 182.304227 
" style="fill: none; stroke: #000000; stroke-width: 0.8; stroke-linejoin: miter; stroke-linecap: square"/>
   </g>
   <g id="text_26">
    <!-- Average Upload/Download for each Week -->
    <g transform="translate(125.320695 176.304227) scale(0.12 -0.12)">
     <defs>
      <path id="DejaVuSans-55" d="M 556 4666 
L 1191 4666 
L 1191 1831 
Q 1191 1081 1462 751 
Q 1734 422 2344 422 
Q 2950 422 3222 751 
Q 3494 1081 3494 1831 
L 3494 4666 
L 4128 4666 
L 4128 1753 
Q 4128 841 3676 375 
Q 3225 -91 2344 -91 
Q 1459 -91 1007 375 
Q 556 841 556 1753 
L 556 4666 
z
" transform="scale(0.015625)"/>
      <path id="DejaVuSans-70" d="M 1159 525 
L 1159 -1331 
L 581 -1331 
L 581 3500 
L 1159 3500 
L 1159 2969 
Q 1341 3281 1617 3432 
Q 1894 3584 2278 3584 
Q 2916 3584 3314 3078 
Q 3713 2572 3713 1747 
Q 3713 922 3314 415 
Q 2916 -91 2278 -91 
Q 1894 -91 1617 61 
Q 1341 213 1159 525 
z
M 3116 1747 
Q 3116 2381 2855 2742 
Q 2594 3103 2138 3103 
Q 1681 3103 1420 2742 
Q 1159 2381 1159 1747 
Q 1159 1113 1420 752 
Q 1681 391 2138 391 
Q 2594 391 2855 752 
Q 3116 1113 3116 1747 
z
" transform="scale(0.015625)"/>
      <path id="DejaVuSans-6c" d="M 603 4863 
L 1178 4863 
L 1178 0 
L 603 0 
L 603 4863 
z
" transform="scale(0.015625)"/>
      <path id="DejaVuSans-2f" d="M 1625 4666 
L 2156 4666 
L 531 -594 
L 0 -594 
L 1625 4666 
z
" transform="scale(0.015625)"/>
      <path id="DejaVuSans-44" d="M 1259 4147 
L 1259 519 
L 2022 519 
Q 2988 519 3436 956 
Q 3884 1394 3884 2338 
Q 3884 3275 3436 3711 
Q 2988 4147 2022 4147 
L 1259 4147 
z
M 628 4666 
L 1925 4666 
Q 3281 4666 3915 4102 
Q 4550 3538 4550 2338 
Q 4550 1131 3912 565 
Q 3275 0 1925 0 
L 628 0 
L 628 4666 
z
" transform="scale(0.015625)"/>
      <path id="DejaVuSans-77" d="M 269 3500 
L 844 3500 
L 1563 769 
L 2278 3500 
L 2956 3500 
L 3675 769 
L 4391 3500 
L 4966 3500 
L 4050 0 
L 3372 0 
L 2619 2869 
L 1863 0 
L 1184 0 
L 269 3500 
z
" transform="scale(0.015625)"/>
     </defs>
     <use xlink:href="#DejaVuSans-41"/>
     <use xlink:href="#DejaVuSans-76" x="62.533203"/>
     <use xlink:href="#DejaVuSans-65" x="121.712891"/>
     <use xlink:href="#DejaVuSans-72" x="183.236328"/>
     <use xlink:href="#DejaVuSans-61" x="224.349609"/>
     <use xlink:href="#DejaVuSans-67" x="285.628906"/>
     <use xlink:href="#DejaVuSans-65" x="349.105469"/>
     <use xlink:href="#DejaVuSans-20" x="410.628906"/>
     <use xlink:href="#DejaVuSans-55" x="442.416016"/>
     <use xlink:href="#DejaVuSans-70" x="515.609375"/>
     <use xlink:href="#DejaVuSans-6c" x="579.085938"/>
     <use xlink:href="#DejaVuSans-6f" x="606.869141"/>
     <use xlink:href="#DejaVuSans-61" x="668.050781"/>
     <use xlink:href="#DejaVuSans-64" x="729.330078"/>
     <use xlink:href="#DejaVuSans-2f" x="792.806641"/>
     <use xlink:href="#DejaVuSans-44" x="826.498047"/>
     <use xlink:href="#DejaVuSans-6f" x="903.5"/>
     <use xlink:href="#DejaVuSans-77" x="964.681641"/>
     <use xlink:href="#DejaVuSans-6e" x="1046.46875"/>
     <use xlink:href="#DejaVuSans-6c" x="1109.847656"/>
     <use xlink:href="#DejaVuSans-6f" x="1137.630859"/>
     <use xlink:href="#DejaVuSans-61" x="1198.8125"/>
     <use xlink:href="#DejaVuSans-64" x="1260.091797"/>
     <use xlink:href="#DejaVuSans-20" x="1323.568359"/>
     <use xlink:href="#DejaVuSans-66" x="1355.355469"/>
     <use xlink:href="#DejaVuSans-6f" x="1390.560547"/>
     <use xlink:href="#DejaVuSans-72" x="1451.742188"/>
     <use xlink:href="#DejaVuSans-20" x="1492.855469"/>
     <use xlink:href="#DejaVuSans-65" x="1524.642578"/>
     <use xlink:href="#DejaVuSans-61" x="1586.166016"/>
     <use xlink:href="#DejaVuSans-63" x="1647.445312"/>
     <use xlink:href="#DejaVuSans-68" x="1702.425781"/>
     <use xlink:href="#DejaVuSans-20" x="1765.804688"/>
     <use xlink:href="#DejaVuSans-57" x="1797.591797"/>
     <use xlink:href="#DejaVuSans-65" x="1890.59375"/>
     <use xlink:href="#DejaVuSans-65" x="1952.117188"/>
     <use xlink:href="#DejaVuSans-6b" x="2013.640625"/>
    </g>
   </g>
   <g id="legend_1">
    <g id="patch_12">
     <path d="M 58.719912 219.660477 
L 173.176162 219.660477 
Q 175.176162 219.660477 175.176162 217.660477 
L 175.176162 189.304227 
Q 175.176162 187.304227 173.176162 187.304227 
L 58.719912 187.304227 
Q 56.719912 187.304227 56.719912 189.304227 
L 56.719912 217.660477 
Q 56.719912 219.660477 58.719912 219.660477 
z
" style="fill: #ffffff; opacity: 0.8; stroke: #cccccc; stroke-linejoin: miter"/>
    </g>
    <g id="LineCollection_4">
     <path d="M 70.719912 200.402665 
L 70.719912 190.402665 
" style="fill: none; stroke: #1f77b4; stroke-width: 1.5"/>
    </g>
    <g id="line2d_26">
     <path d="M 60.719912 195.402665 
L 80.719912 195.402665 
" style="fill: none; stroke: #1f77b4; stroke-width: 1.5; stroke-linecap: square"/>
    </g>
    <g id="line2d_27"/>
    <g id="text_27">
     <!-- uploads in KB -->
     <g transform="translate(88.719912 198.902665) scale(0.1 -0.1)">
      <defs>
       <path id="DejaVuSans-4b" d="M 628 4666 
L 1259 4666 
L 1259 2694 
L 3353 4666 
L 4166 4666 
L 1850 2491 
L 4331 0 
L 3500 0 
L 1259 2247 
L 1259 0 
L 628 0 
L 628 4666 
z
" transform="scale(0.015625)"/>
       <path id="DejaVuSans-42" d="M 1259 2228 
L 1259 519 
L 2272 519 
Q 2781 519 3026 730 
Q 3272 941 3272 1375 
Q 3272 1813 3026 2020 
Q 2781 2228 2272 2228 
L 1259 2228 
z
M 1259 4147 
L 1259 2741 
L 2194 2741 
Q 2656 2741 2882 2914 
Q 3109 3088 3109 3444 
Q 3109 3797 2882 3972 
Q 2656 4147 2194 4147 
L 1259 4147 
z
M 628 4666 
L 2241 4666 
Q 2963 4666 3353 4366 
Q 3744 4066 3744 3513 
Q 3744 3084 3544 2831 
Q 3344 2578 2956 2516 
Q 3422 2416 3680 2098 
Q 3938 1781 3938 1306 
Q 3938 681 3513 340 
Q 3088 0 2303 0 
L 628 0 
L 628 4666 
z
" transform="scale(0.015625)"/>
      </defs>
      <use xlink:href="#DejaVuSans-75"/>
      <use xlink:href="#DejaVuSans-70" x="63.378906"/>
      <use xlink:href="#DejaVuSans-6c" x="126.855469"/>
      <use xlink:href="#DejaVuSans-6f" x="154.638672"/>
      <use xlink:href="#DejaVuSans-61" x="215.820312"/>
      <use xlink:href="#DejaVuSans-64" x="277.099609"/>
      <use xlink:href="#DejaVuSans-73" x="340.576172"/>
      <use xlink:href="#DejaVuSans-20" x="392.675781"/>
      <use xlink:href="#DejaVuSans-69" x="424.462891"/>
      <use xlink:href="#DejaVuSans-6e" x="452.246094"/>
      <use xlink:href="#DejaVuSans-20" x="515.625"/>
      <use xlink:href="#DejaVuSans-4b" x="547.412109"/>
      <use xlink:href="#DejaVuSans-42" x="612.988281"/>
     </g>
    </g>
    <g id="LineCollection_5">
     <path d="M 70.719912 215.08079 
L 70.719912 205.08079 
" style="fill: none; stroke: #ff7f0e; stroke-width: 1.5"/>
    </g>
    <g id="line2d_28">
     <path d="M 60.719912 210.08079 
L 80.719912 210.08079 
" style="fill: none; stroke: #ff7f0e; stroke-width: 1.5; stroke-linecap: square"/>
    </g>
    <g id="line2d_29"/>
    <g id="text_28">
     <!-- downloads in KB -->
     <g transform="translate(88.719912 213.58079) scale(0.1 -0.1)">
      <use xlink:href="#DejaVuSans-64"/>
      <use xlink:href="#DejaVuSans-6f" x="63.476562"/>
      <use xlink:href="#DejaVuSans-77" x="124.658203"/>
      <use xlink:href="#DejaVuSans-6e" x="206.445312"/>
      <use xlink:href="#DejaVuSans-6c" x="269.824219"/>
      <use xlink:href="#DejaVuSans-6f" x="297.607422"/>
      <use xlink:href="#DejaVuSans-61" x="358.789062"/>
      <use xlink:href="#DejaVuSans-64" x="420.068359"/>
      <use xlink:href="#DejaVuSans-73" x="483.544922"/>
      <use xlink:href="#DejaVuSans-20" x="535.644531"/>
      <use xlink:href="#DejaVuSans-69" x="567.431641"/>
      <use xlink:href="#DejaVuSans-6e" x="595.214844"/>
      <use xlink:href="#DejaVuSans-20" x="658.59375"/>
      <use xlink:href="#DejaVuSans-4b" x="690.380859"/>
      <use xlink:href="#DejaVuSans-42" x="755.957031"/>
     </g>
    </g>
   </g>
  </g>
 </g>
 <defs>
  <clipPath id="pe52643500e">
   <rect x="51.719912" y="26.88" width="395.792815" height="97.384227"/>
  </clipPath>
  <clipPath id="pec6bad70ff">
   <rect x="51.719912" y="182.304227" width="395.792815" height="97.384227"/>
  </clipPath>
 </defs>
</svg>
